<svg width="19" height="17" fill="none" xmlns="http://www.w3.org/2000/svg"><path d="M1.727 9.122V7.88C1.727 3.595 5.214.108 9.5.108s7.773 3.487 7.773 7.773v1.24A4.314 4.314 0 0119 12.575a4.323 4.323 0 01-4.318 4.318.864.864 0 01-.864-.863V9.12c0-.477.387-.863.864-.863.295 0 .584.03.864.087V7.88A6.052 6.052 0 009.5 1.835a6.052 6.052 0 00-6.045 6.046v.462c.279-.057.567-.087.863-.087.477 0 .864.386.864.863v6.91a.864.864 0 01-.864.863A4.323 4.323 0 010 12.574c0-1.41.68-2.664 1.727-3.452z" fill="#fff"/></svg>