<svg width="17" height="10" fill="none" xmlns="http://www.w3.org/2000/svg"><path d="M1.975 5.81h8.165v1.534H5a1.725 1.725 0 00-1.62-1.135c-.732 0-1.359.46-1.607 1.106a.735.735 0 01-.531-.706v-.065c0-.406.329-.735.734-.735zm2.63 1.95a1.283 1.283 0 01-2.564 0c0-.706.575-1.282 1.281-1.282.707 0 1.283.576 1.283 1.283zm-.393 0a.89.89 0 00-1.78 0 .89.89 0 001.78 0zm10.418 0a1.283 1.283 0 11-1.282-1.282c.707 0 1.282.576 1.282 1.283zm-.392 0a.89.89 0 00-1.779 0 .89.89 0 001.78 0zM16.5 4.888v2.09c0 .135-.11.245-.245.245h-1.28a1.724 1.724 0 00-1.57-1.013c-.696 0-1.297.416-1.568 1.013h-.864a.245.245 0 01-.245-.245V1.964c0-.135.11-.245.245-.245h3.225c.135 0 .34.045.49.245L16.5 4.887zm-1.143-.637L14.255 2.42c-.085-.157-.19-.244-.564-.244h-2a.245.245 0 00-.245.244v1.83c0 .135.11.245.245.245h3.42c.136 0 .246-.11.246-.245zm.955 1.975a.229.229 0 00-.457 0v.433a.229.229 0 10.457 0v-.433zM.5 5.371h9.64V.958H.5V5.37z" fill="#fff"/></svg>