<svg width="170" height="48" fill="none" xmlns="http://www.w3.org/2000/svg"><path d="M3 12h20.5l9 23.5L41 12l8 23.5L58.5 12m7.5 0v23.5m9 0V12l15.5 22.5V12" stroke="#fff" stroke-width="5" stroke-linecap="round" stroke-linejoin="round"/><circle cx="33" cy="44.5" r="3.5" fill="#fff"/><circle cx="50" cy="44.5" r="3.5" fill="#fff"/><circle cx="66" cy="3.5" r="3.5" fill="#fff"/><path d="M103.022 20.01l-.835.863c-.693-.674-1.37-1.011-2.032-1.011-.42 0-.782.139-1.085.417-.297.279-.445.603-.445.974 0 .328.123.64.37.937.248.303.767.66 1.559 1.067.965.501 1.621.984 1.967 1.448.34.47.51.998.51 1.586 0 .829-.29 1.53-.872 2.106-.581.575-1.308.863-2.18.863a3.834 3.834 0 01-1.67-.38 3.627 3.627 0 01-1.308-1.049l.816-.928c.662.749 1.364 1.123 2.106 1.123.52 0 .962-.167 1.327-.501.365-.334.547-.727.547-1.178 0-.371-.12-.702-.361-.993-.242-.284-.786-.643-1.633-1.076-.91-.47-1.528-.934-1.856-1.392a2.625 2.625 0 01-.491-1.568c0-.767.26-1.404.779-1.91.526-.508 1.187-.762 1.985-.762.928 0 1.862.455 2.802 1.364zm3.442-4.852h1.308v3.748h2.06v1.114h-2.06V29h-1.308v-8.98h-1.772v-1.114h1.772v-3.748zm10.084 3.489c1.553 0 2.839.562 3.86 1.688.927 1.027 1.391 2.242 1.391 3.646 0 1.41-.491 2.644-1.475 3.702-.977 1.051-2.236 1.577-3.776 1.577-1.546 0-2.811-.526-3.794-1.577-.977-1.058-1.466-2.292-1.466-3.702 0-1.398.464-2.61 1.392-3.637 1.02-1.132 2.31-1.698 3.868-1.698zm0 1.27c-1.076 0-2 .4-2.774 1.197-.773.798-1.159 1.763-1.159 2.895 0 .73.176 1.41.529 2.04a3.78 3.78 0 001.428 1.467c.6.34 1.259.51 1.976.51.718 0 1.376-.17 1.976-.51a3.783 3.783 0 001.429-1.466 4.111 4.111 0 00.529-2.041c0-1.132-.39-2.097-1.169-2.895-.773-.798-1.695-1.197-2.765-1.197zm7.181-1.01h1.327v1.474c.395-.581.813-1.014 1.252-1.299.439-.29.897-.436 1.373-.436.359 0 .742.115 1.151.344l-.678 1.095c-.272-.118-.501-.177-.686-.177-.433 0-.851.18-1.253.538-.402.353-.708.903-.918 1.652-.161.575-.241 1.738-.241 3.488V29h-1.327V18.906zm14.705 6.744l1.094.575c-.358.705-.773 1.274-1.243 1.707a5.01 5.01 0 01-1.586.993c-.588.222-1.253.334-1.995.334-1.645 0-2.932-.538-3.859-1.615-.928-1.082-1.392-2.303-1.392-3.664 0-1.28.393-2.421 1.178-3.423.996-1.274 2.329-1.912 3.999-1.912 1.719 0 3.092.653 4.119 1.958.73.922 1.101 2.072 1.113 3.451h-9.073c.025 1.175.399 2.14 1.123 2.895.723.748 1.617 1.122 2.681 1.122.513 0 1.011-.09 1.493-.269.489-.18.903-.417 1.244-.714.34-.297.708-.776 1.104-1.438zm0-2.718c-.174-.693-.427-1.247-.761-1.661-.328-.414-.764-.748-1.308-1.002a4.022 4.022 0 00-1.717-.38c-.989 0-1.84.318-2.551.955-.519.464-.912 1.16-1.178 2.088h7.515zm5.288 4.026a1.1 1.1 0 01.807.334c.222.223.334.495.334.816 0 .316-.112.588-.334.817a1.1 1.1 0 01-.807.334 1.1 1.1 0 01-.807-.334 1.13 1.13 0 01-.334-.817c0-.321.111-.593.334-.816.222-.223.491-.334.807-.334zm3.859-8.053h1.29v1.856c.513-.705 1.104-1.234 1.772-1.587.668-.352 1.413-.529 2.235-.529 1.435 0 2.663.517 3.684 1.55 1.02 1.033 1.53 2.276 1.53 3.73 0 1.484-.507 2.745-1.521 3.784-1.008 1.033-2.227 1.55-3.655 1.55a4.925 4.925 0 01-2.218-.501c-.674-.334-1.283-.832-1.827-1.494v5.427h-1.29V18.906zm5.195.993c-1.125 0-2.075.393-2.848 1.178-.767.786-1.15 1.763-1.15 2.932 0 .767.17 1.456.51 2.069a3.793 3.793 0 001.475 1.456 4.113 4.113 0 002.032.538c.699 0 1.354-.18 1.967-.538a4.013 4.013 0 001.475-1.521 4.072 4.072 0 000-4.082 3.843 3.843 0 00-1.457-1.494 3.893 3.893 0 00-2.004-.538zm7.747-4.89h1.308v7.96l4.667-4.063h1.911l-5.539 4.815L168.733 29h-1.837l-5.065-4.537V29h-1.308V15.01z" fill="#fff"/></svg>